<svg width="24" height="24" viewBox="0 0 32 32" fill="none" xmlns="http://www.w3.org/2000/svg">
<path d="M16 0C7.163 0 0 7.163 0 16C0 24.837 7.163 32 16 32C24.837 32 32 24.837 32 16C32 7.163 24.837 0 16 0Z" fill="#534BB1"/>
<path d="M27.646 16.2289H24.7855C24.7855 10.4444 20.0432 5.77014 14.1931 5.77014C8.43813 5.77014 3.75 10.3991 3.75 16.1954C3.75 21.9059 8.20884 26.4977 13.9315 26.7428V23.6485C9.92173 23.4071 6.76711 20.1179 6.76711 16.1954C6.76711 12.0047 10.0641 8.63815 14.1931 8.63815C18.4188 8.63815 21.7684 12.0623 21.7684 16.2289H18.9138C18.9138 13.5856 16.8211 11.5013 14.1931 11.5013C11.6204 11.5013 9.58317 13.5376 9.58317 16.1954C9.58317 18.6532 11.3619 20.6496 13.7291 20.9445V17.1463H20.481V26.4977H23.4981V19.8896H27.646V16.2289Z" fill="white"/>
</svg>