<svg width="128" height="128" viewBox="0 0 128 128" fill="none" xmlns="http://www.w3.org/2000/svg">
<rect width="128" height="128" rx="64" fill="#AB9FF2"/>
<path d="M110.584 64.9142H99.142C99.142 41.7651 80.173 23 56.7724 23C33.753 23 15 41.3521 15 64.7027C15 87.6236 32.8345 105.991 55.7396 106.971V94.5919C39.6891 93.6263 27.0685 80.4684 27.0685 64.7027C27.0685 47.9863 40.256 34.5707 56.7724 34.5707C73.6748 34.5707 87.0736 48.2066 87.0736 64.9142H75.6551C75.6551 54.3504 67.2844 45.7997 56.7724 45.7997C46.4816 45.7997 38.3314 54.138 38.3314 64.7027C38.3314 74.6125 45.4478 82.5995 54.9167 83.7752V68.5841H81.9242V105.991H93.9926V79.5548H110.584V64.9142Z" fill="white"/>
</svg>