<svg width="24" height="24" viewBox="0 0 32 32" fill="none" xmlns="http://www.w3.org/2000/svg">
<path d="M32 16C32 24.8366 24.8366 32 16 32C7.16344 32 0 24.8366 0 16C0 7.16344 7.16344 0 16 0C24.8366 0 32 7.16344 32 16Z" fill="#FE9E0E"/>
<path d="M22.81 19.5H14.62C14.19 19.5 13.95 19.06 14.2 18.73L21.06 9.61C21.31 9.28 21.8 9.28 22.05 9.61L28.96 18.73C29.21 19.06 28.97 19.5 28.54 19.5H25.55C25.35 19.5 25.16 19.41 25.05 19.26L19.93 12.38C19.81 12.22 19.57 12.22 19.46 12.38L14.3 19.26C14.19 19.41 14 19.5 13.8 19.5H3.45C3.02 19.5 2.78 19.06 3.03 18.73L14.67 3.31C14.92 2.98 15.4 2.98 15.66 3.31L18.68 7.29C18.93 7.62 18.69 8.06 18.26 8.06H17.31C17.11 8.06 16.93 7.97 16.82 7.82L15.16 5.65C15.04 5.49 14.8 5.49 14.69 5.65L7.01 15.77C6.76 16.1 7 16.54 7.43 16.54H13.8C14 16.54 14.19 16.45 14.3 16.3L16.82 12.89C16.93 12.74 17.11 12.65 17.31 12.65H22.76C23.19 12.65 23.43 13.09 23.18 13.42L19.46 18.35C19.35 18.5 19.16 18.59 18.96 18.59H18.09C17.66 18.59 17.42 19.03 17.67 19.35L18.96 21.04C19.07 21.19 19.26 21.28 19.46 21.28H24.47C24.9 21.28 25.14 21.72 24.89 22.05L20.59 27.76C20.47 27.92 20.23 27.92 20.12 27.76L3.03 5.24C2.78 4.91 2.39 5.04 2.39 5.45V19.1C2.39 19.32 2.57 19.5 2.79 19.5H22.81Z" fill="white"/>
</svg>