<svg width="128" height="128" viewBox="0 0 128 128" fill="none" xmlns="http://www.w3.org/2000/svg">
<rect width="128" height="128" rx="64" fill="#FC9D0D"/>
<path d="M71.5461 98.5H56.4543C54.6827 98.5 53.5592 96.648 54.3731 95.0987L80.3186 45.4532C81.1244 43.9115 83.3733 43.9035 84.1896 45.4382L110.539 95.0836C111.364 96.6365 110.237 98.5 108.459 98.5H93.1627C92.313 98.5 91.518 98.1023 91.0197 97.4423L72.6877 73.4644C72.1916 72.8078 71.4009 72.4133 70.5551 72.4133H57.4414C56.5805 72.4133 55.7787 72.024 55.2842 71.3546L47.4466 60.9086C46.6227 59.8084 47.0389 58.1763 48.3686 57.6254C58.377 52.9701 68.8732 47.8379 78.8737 43.178C79.7952 42.7759 80.2069 41.6578 79.779 40.7493L78.1876 37.7071C77.7548 36.7882 76.6154 36.3824 75.7122 36.8304L44.4588 51.7596C43.5587 52.2058 42.4337 51.8046 42.0037 50.899L40.2602 47.2294C39.8337 46.3317 40.2398 45.2834 41.1322 44.8241L75.9023 27.9031C76.7928 27.4448 77.8979 27.8456 78.3362 28.7499L88.6783 49.5058C89.1062 50.3886 88.7216 51.4788 87.8271 51.891L69.9464 60.4114C69.0311 60.8326 68.649 61.9484 69.0981 62.8502L70.8649 66.5654C71.3064 67.453 72.4078 67.8378 73.3067 67.4122L82.0633 63.5265C82.9715 63.0963 84.0843 63.4929 84.5144 64.4012L86.3156 68.1633C86.7457 69.0716 86.3491 70.1843 85.4408 70.6145L76.6807 74.5015C75.7847 74.9261 75.3932 76.0232 75.8188 76.9189L83.4767 93.3097C83.9049 94.212 83.5052 95.3341 82.5932 95.757L71.5461 98.5Z" fill="white"/>
<path d="M53.2192 66.8896C53.2192 66.8896 49.5359 70.0547 47.2834 72.1153C46.5885 72.7463 46.1694 73.6204 46.1694 74.5368V95.0973C46.1694 96.6475 47.2952 98.0001 48.8443 98.0001H39.7557C38.2067 98.0001 37.0809 96.6475 37.0809 95.0973V74.5368C37.0809 73.3636 36.5052 72.2577 35.5267 71.5379L23.8 62.5973C22.6736 61.7674 22.6736 60.0142 23.8 59.1844L36.0962 49.8967C36.7594 49.3952 37.5731 49.1274 38.4114 49.1399L53.2192 49.5002C53.2192 49.5002 53.2192 62.1946 53.2192 66.8896Z" fill="white"/>
</svg>